<svg xmlns="http://www.w3.org/2000/svg" version="1.1" xmlns:xlink="http://www.w3.org/1999/xlink" xmlns:svgjs="http://svgjs.dev/svgjs" width="1000" height="1000" viewBox="0 0 1000 1000"><rect width="1000" height="1000" fill="#ffffff"></rect><g transform="matrix(0.7,0,0,0.7,149.57575757575756,282.1265587044535)"><svg viewBox="0 0 396 247" data-background-color="#ffffff" preserveAspectRatio="xMidYMid meet" height="623" width="1000" xmlns="http://www.w3.org/2000/svg" xmlns:xlink="http://www.w3.org/1999/xlink"><g id="tight-bounds" transform="matrix(1,0,0,1,0.2400000000000091,-0.09999999999999432)"><svg viewBox="0 0 395.52 247.2" height="247.2" width="395.52"><g><svg></svg></g><g><svg viewBox="0 0 395.52 247.2" height="247.2" width="395.52"><g mask="url(&quot;#e159e6b0-f429-4405-a21c-dd2f11fd7cea&quot;)"><g><path xmlns="http://www.w3.org/2000/svg" d="M225.291 0l79.705 247.2h-40.815l-5.776-27.723-10.781-34.27-52.367-1.155-47.361 1.155-11.551 32.344-6.161 29.649h-39.66l88.176-247.2zM197.953 153.634l39.659-0.77-35.424-113.974h-2.695l-40.43 113.974z" fill="#5e1914" fill-rule="nonzero" stroke="none" stroke-width="1" stroke-linecap="butt" stroke-linejoin="miter" stroke-miterlimit="10" stroke-dasharray="" stroke-dashoffset="0" font-family="none" font-weight="none" font-size="none" text-anchor="none" style="mix-blend-mode: normal" data-fill-palette-color="tertiary"></path></g></g><g transform="matrix(1,0,0,1,3.205053191489384,37.08)"><svg viewBox="0 0 389.1098936170212 173.04" height="173.04" width="389.1098936170212"><g><svg viewBox="0 0 389.1098936170212 173.04" height="173.04" width="389.1098936170212"><g><svg viewBox="0 0 389.1098936170212 173.04" height="173.04" width="389.1098936170212"><g><svg viewBox="0 0 389.1098936170212 173.04" height="173.04" width="389.1098936170212"><g id="textblocktransform"><svg viewBox="0 0 389.1098936170212 173.04" height="173.04" width="389.1098936170212" id="textblock"><g><svg viewBox="0 0 389.1098936170212 173.04" height="173.04" width="389.1098936170212"><g transform="matrix(1,0,0,1,0,0)"><svg width="389.1098936170212" viewBox="-2.449999988079071 -35.150001525878906 85.53999328613281 38.60000228881836" height="173.04" data-palette-color="#5e1914"><path d="M18.05-32.1L28.4 0 23.1 0 22.35-3.6 20.95-8.05 14.15-8.2 8-8.05 6.5-3.85 5.7 0 0.55 0 12-32.1 18.05-32.1ZM14.5-12.15L19.65-12.25 15.05-27.05 14.7-27.05 9.45-12.25 14.5-12.15ZM48.35-12.85Q51.75-7.4 56.4-1.2L56.4-1.2 56.35-0.6Q53.95 0.2 51.4 0.45L51.4 0.45 50.8 0.05Q46.65-6.75 44.1-11.45L44.1-11.45 38.65-11.45 38.65-10.1 38.9 0 33.65 0 34-9.65 33.65-32.1 44.55-32.15Q49.4-32.15 52.05-29.73 54.7-27.3 54.7-22.8L54.7-22.8Q54.7-19.6 53.02-17.03 51.35-14.45 48.35-12.85L48.35-12.85ZM38.9-27.95L38.75-15.65 44.25-15.5Q49.3-17.05 49.3-22.4L49.3-22.4Q49.3-25.2 47.77-26.6 46.25-28 43.15-28.1L43.15-28.1 38.9-27.95ZM79.8-32.1L80.09-31.65 79.8-27.75 74-28.05 71.3-28.05 71.05-10.1 71.3 0 66.09 0 66.39-9.65 66.14-28.05 63.45-28.05 57.54-27.75 57.2-28.2 57.59-32.1 79.8-32.1Z" opacity="1" transform="matrix(1,0,0,1,0,0)" fill="#5e1914" class="undefined-text-0" data-fill-palette-color="primary" id="text-0"></path></svg></g></svg></g></svg></g></svg></g></svg></g></svg></g></svg></g></svg></g><defs><mask id="e159e6b0-f429-4405-a21c-dd2f11fd7cea"><rect width="395.52" height="247.2" fill="white"></rect><g transform="matrix(1,0,0,1,3.205053191489384,37.08)" id="clone"><svg viewBox="0 0 389.1098936170212 173.04" height="173.04" width="389.1098936170212"><g><svg viewBox="0 0 389.1098936170212 173.04" height="173.04" width="389.1098936170212"><g><svg viewBox="0 0 389.1098936170212 173.04" height="173.04" width="389.1098936170212"><g><svg viewBox="0 0 389.1098936170212 173.04" height="173.04" width="389.1098936170212"><g id="SvgjsG1191"><svg viewBox="0 0 389.1098936170212 173.04" height="173.04" width="389.1098936170212" id="SvgjsSvg1190"><g><svg viewBox="0 0 389.1098936170212 173.04" height="173.04" width="389.1098936170212"><g transform="matrix(1,0,0,1,0,0)"><svg width="389.1098936170212" viewBox="-2.449999988079071 -35.150001525878906 85.53999328613281 38.60000228881836" height="173.04" data-palette-color="#5e1914"><path d="M18.05-32.1L28.4 0 23.1 0 22.35-3.6 20.95-8.05 14.15-8.2 8-8.05 6.5-3.85 5.7 0 0.55 0 12-32.1 18.05-32.1ZM14.5-12.15L19.65-12.25 15.05-27.05 14.7-27.05 9.45-12.25 14.5-12.15ZM48.35-12.85Q51.75-7.4 56.4-1.2L56.4-1.2 56.35-0.6Q53.95 0.2 51.4 0.45L51.4 0.45 50.8 0.05Q46.65-6.75 44.1-11.45L44.1-11.45 38.65-11.45 38.65-10.1 38.9 0 33.65 0 34-9.65 33.65-32.1 44.55-32.15Q49.4-32.15 52.05-29.73 54.7-27.3 54.7-22.8L54.7-22.8Q54.7-19.6 53.02-17.03 51.35-14.45 48.35-12.85L48.35-12.85ZM38.9-27.95L38.75-15.65 44.25-15.5Q49.3-17.05 49.3-22.4L49.3-22.4Q49.3-25.2 47.77-26.6 46.25-28 43.15-28.1L43.15-28.1 38.9-27.95ZM79.8-32.1L80.09-31.65 79.8-27.75 74-28.05 71.3-28.05 71.05-10.1 71.3 0 66.09 0 66.39-9.65 66.14-28.05 63.45-28.05 57.54-27.75 57.2-28.2 57.59-32.1 79.8-32.1Z" opacity="1" transform="matrix(1,0,0,1,0,0)" fill="#5e1914" class="undefined-text-0" data-fill-palette-color="primary" id="SvgjsPath1189" stroke-width="5" stroke="black" stroke-linejoin="round"></path></svg></g></svg></g></svg></g></svg></g></svg></g></svg></g></svg></g></mask></defs></svg><rect width="395.52" height="247.2" fill="none" stroke="none" visibility="hidden"></rect></g></svg></g></svg>